<svg width="32" height="32" viewBox="0 0 32 32" fill="none" xmlns="http://www.w3.org/2000/svg">
<g id="et:twitter" clip-path="url(#clip0_445_3208)">
<g id="Group">
<path id="Vector" d="M16.0001 -0.0339355C7.15909 -0.0339355 -0.0349121 7.15806 -0.0349121 16.0001C-0.0349121 24.8421 7.15909 32.0341 16.0001 32.0341C24.8411 32.0341 32.0351 24.8421 32.0351 16.0001C32.0351 7.15806 24.8411 -0.0339355 16.0001 -0.0339355ZM16.0001 30.9661C7.74809 30.9661 1.03509 24.2521 1.03509 16.0001C1.03509 7.74806 7.74809 1.03406 16.0001 1.03406C24.2521 1.03406 30.9651 7.74806 30.9651 16.0001C30.9651 24.2521 24.2521 30.9661 16.0001 30.9661Z" fill="black"/>
<path id="Vector_2" d="M24.7942 11.0461C24.9053 10.8408 24.9967 10.6255 25.0672 10.4031C25.0999 10.2999 25.1006 10.1892 25.0691 10.0857C25.0376 9.98215 24.9755 9.89059 24.8908 9.8231C24.8062 9.75561 24.7032 9.71536 24.5952 9.70768C24.4872 9.7 24.3795 9.72524 24.2862 9.78006C23.774 10.0849 23.2192 10.3117 22.6402 10.4531C21.9375 9.81876 21.0248 9.46715 20.0782 9.46606C19.5639 9.46646 19.055 9.5707 18.582 9.77253C18.1089 9.97435 17.6815 10.2696 17.3254 10.6406C16.9692 11.0116 16.6917 11.4507 16.5093 11.9316C16.327 12.4125 16.2436 12.9252 16.2642 13.4391C14.0152 13.156 11.9615 12.018 10.5292 10.2611C10.4743 10.1945 10.4042 10.1422 10.3247 10.1085C10.2453 10.0749 10.1589 10.0609 10.0729 10.0678C9.98695 10.0746 9.90389 10.1022 9.83081 10.148C9.75774 10.1938 9.6968 10.2566 9.65319 10.3311C9.32494 10.8939 9.14651 11.5315 9.13495 12.183C9.1234 12.8344 9.2791 13.4779 9.58719 14.0521C9.51153 14.0642 9.43889 14.0906 9.37319 14.1301C9.29227 14.1816 9.22565 14.2526 9.1795 14.3367C9.13336 14.4208 9.10917 14.5152 9.10919 14.6111C9.10919 15.7461 9.61419 16.7881 10.4282 17.4961L10.3932 17.5311C10.3314 17.6004 10.2889 17.6847 10.2699 17.7756C10.251 17.8665 10.2562 17.9608 10.2852 18.0491C10.4552 18.5785 10.7387 19.0644 11.1159 19.4729C11.4931 19.8813 11.955 20.2026 12.4692 20.4141C11.4128 20.9296 10.2306 21.1306 9.06319 20.9931C8.94319 20.9808 8.82253 21.0088 8.72011 21.0725C8.61768 21.1362 8.53928 21.232 8.49719 21.3451C8.45677 21.4589 8.45601 21.5831 8.49504 21.6975C8.53406 21.8118 8.61059 21.9097 8.71219 21.9751C10.2992 22.9937 12.1454 23.5348 14.0312 23.5341C20.2112 23.5341 23.9052 18.5141 23.9052 13.6611L23.9042 13.4971C24.5034 13.0298 25.0237 12.4693 25.4452 11.8371C25.5091 11.7415 25.5405 11.6279 25.5348 11.5132C25.5291 11.3984 25.4866 11.2885 25.4135 11.1997C25.3405 11.111 25.2408 11.0481 25.1293 11.0205C25.0177 10.9928 24.9002 11.0018 24.7942 11.0461ZM23.0492 12.8011C22.977 12.8536 22.9189 12.9231 22.8801 13.0036C22.8414 13.0841 22.8232 13.1729 22.8272 13.2621C22.8332 13.3947 22.8362 13.5274 22.8362 13.6601C22.8362 17.9881 19.5432 22.4651 14.0322 22.4651C13.0494 22.4648 12.0735 22.2998 11.1452 21.9771C12.2565 21.763 13.3005 21.2865 14.1902 20.5871C14.2767 20.5188 14.3401 20.4255 14.3716 20.3199C14.4031 20.2143 14.4012 20.1015 14.3662 19.997C14.3312 19.8925 14.2648 19.8013 14.176 19.736C14.0872 19.6707 13.9804 19.6344 13.8702 19.6321C13.439 19.624 13.0157 19.5146 12.6346 19.3127C12.2535 19.1109 11.9252 18.8222 11.6762 18.4701C11.9295 18.4527 12.1769 18.4114 12.4182 18.3461C12.5348 18.3148 12.6374 18.245 12.7093 18.148C12.7811 18.0509 12.818 17.9324 12.8138 17.8117C12.8096 17.6911 12.7647 17.5754 12.6863 17.4835C12.6079 17.3917 12.5007 17.3291 12.3822 17.3061C11.8952 17.2071 11.4442 16.9776 11.0777 16.642C10.7111 16.3064 10.4427 15.8775 10.3012 15.4011C10.5679 15.4684 10.8385 15.5067 11.1132 15.5161C11.3482 15.5151 11.5662 15.3711 11.6392 15.1451C11.7122 14.9191 11.6262 14.6701 11.4272 14.5381C10.9571 14.2242 10.5952 13.773 10.3906 13.2461C10.1861 12.7191 10.1489 12.1419 10.2842 11.5931C12.021 13.3756 14.3667 14.437 16.8522 14.5651C17.0282 14.5661 17.1822 14.5031 17.2892 14.3741C17.3962 14.2451 17.4372 14.0741 17.3992 13.9101C17.2624 13.3211 17.3236 12.7034 17.5732 12.1527C17.8229 11.6019 18.2471 11.1489 18.7802 10.8635C19.3133 10.5782 19.9256 10.4765 20.5223 10.5742C21.1191 10.6719 21.6669 10.9636 22.0812 11.4041C22.1436 11.4699 22.2215 11.519 22.3078 11.5468C22.3942 11.5746 22.4861 11.5802 22.5752 11.5631C22.7405 11.5297 22.9035 11.4914 23.0642 11.4481C22.9912 11.5018 22.9158 11.5522 22.8382 11.5991C22.7345 11.6626 22.6555 11.7595 22.6143 11.8739C22.5731 11.9884 22.5721 12.1134 22.6114 12.2285C22.6508 12.3435 22.7282 12.4417 22.8309 12.5069C22.9335 12.5721 23.0553 12.6004 23.1762 12.5871L23.3582 12.5641C23.2578 12.6464 23.1547 12.7254 23.0492 12.8011Z" fill="black"/>
</g>
</g>
<defs>
<clipPath id="clip0_445_3208">
<rect width="32" height="32" fill="white"/>
</clipPath>
</defs>
</svg>
